<?xml version="1.0" standalone="no"?>
<!DOCTYPE svg PUBLIC "-//W3C//DTD SVG 20010904//EN"
 "http://www.w3.org/TR/2001/REC-SVG-20010904/DTD/svg10.dtd">
<svg version="1.0" xmlns="http://www.w3.org/2000/svg"
 width="608.000000pt" height="608.000000pt" viewBox="0 0 608.000000 608.000000"
 preserveAspectRatio="xMidYMid meet">
<metadata>
Created by potrace 1.11, written by Peter Selinger 2001-2013
</metadata>
<g transform="translate(0.000000,608.000000) scale(0.100000,-0.100000)"
fill="#000000" stroke="none">
<path d="M4193 6053 c-14 -16 -34 -46 -45 -67 -18 -36 -87 -208 -93 -231 -1
-5 -4 -17 -7 -25 -6 -15 -29 -95 -34 -115 -7 -29 -34 -159 -39 -187 -7 -38
-21 -49 -55 -43 -99 17 -918 25 -1175 12 -129 -7 -278 -16 -355 -22 -113 -8
-183 -15 -335 -31 -137 -14 -125 -20 -157 71 -79 220 -197 404 -305 473 -109
70 -168 34 -202 -121 -9 -37 -15 -80 -27 -192 -7 -64 -16 -369 -29 -964 -2
-135 -2 -135 -31 -159 -168 -142 -347 -322 -404 -406 -8 -13 -21 -29 -28 -37
-7 -8 -31 -39 -53 -69 -21 -30 -44 -60 -49 -67 -6 -7 -10 -14 -10 -17 0 -2
-18 -31 -40 -64 -89 -135 -265 -517 -285 -620 -2 -12 -7 -27 -10 -32 -3 -5 -8
-18 -10 -28 -1 -9 -8 -35 -13 -57 -6 -22 -13 -51 -16 -65 -3 -14 -10 -44 -16
-68 -5 -23 -12 -57 -14 -75 l-4 -32 56 -2 c31 -1 102 -4 157 -7 180 -10 319
-18 355 -19 30 -2 40 -9 74 -57 45 -63 183 -236 236 -295 57 -65 251 -256 314
-310 32 -27 68 -58 80 -68 11 -11 73 -58 136 -105 63 -48 117 -90 118 -94 2
-5 8 -8 13 -8 6 0 42 -22 82 -48 117 -79 474 -272 502 -272 3 0 24 -9 48 -19
55 -25 209 -84 272 -105 73 -23 97 -25 123 -8 12 8 22 12 22 8 0 -9 126 63
274 157 43 27 274 192 313 223 23 19 46 34 51 34 6 0 12 3 14 8 2 4 23 23 48
42 25 19 50 39 56 45 6 5 39 35 74 65 192 168 397 366 625 604 42 44 178 194
237 261 67 77 157 231 173 297 7 26 18 31 134 67 119 38 193 59 234 67 10 2
27 6 37 9 21 7 28 8 135 30 44 9 90 18 102 20 l22 5 -26 63 c-38 93 -127 269
-180 355 -30 49 -108 167 -113 172 -3 3 -17 21 -30 40 -13 19 -32 44 -41 55
-10 11 -46 54 -81 95 -98 116 -246 259 -358 345 -36 28 -70 55 -77 60 -6 6
-28 21 -47 35 -20 14 -36 34 -37 45 -1 11 -2 38 -4 60 -1 22 -5 72 -9 110 -4
39 -9 90 -11 115 -4 41 -9 83 -20 180 -3 19 -7 58 -11 85 -3 28 -7 64 -9 80
-2 17 -6 53 -10 80 -3 28 -7 61 -9 75 -3 14 -7 45 -10 70 -4 25 -8 56 -11 70
-3 14 -7 42 -10 63 -15 108 -21 148 -41 257 -10 55 -13 72 -18 109 -12 80 -38
121 -76 121 -6 0 -22 -12 -37 -27z m322 -2863 l0 -145 -65 -56 c-125 -108
-468 -455 -627 -636 -43 -48 -80 -90 -83 -93 -3 -3 -38 -43 -79 -90 -95 -108
-331 -344 -436 -435 -44 -39 -82 -72 -85 -76 -3 -3 -43 -35 -90 -73 -108 -85
-108 -86 -152 -118 l-36 -28 -15 24 c-22 33 -86 95 -147 141 -29 22 -57 45
-64 50 -6 6 -56 42 -111 80 -127 87 -169 118 -173 128 -2 4 -8 7 -12 7 -8 0
-269 188 -330 237 -8 7 -70 55 -138 108 -68 52 -133 105 -145 116 -12 12 -44
40 -71 62 -27 23 -120 113 -207 199 l-158 157 0 191 1 190 26 1 c15 0 34 2 42
4 25 5 112 17 225 31 22 2 56 7 75 9 19 3 62 7 95 11 33 3 71 7 85 8 14 2 57
7 95 11 39 4 77 9 86 10 9 2 56 6 105 10 49 4 91 9 94 10 3 2 46 6 95 10 50 4
106 8 125 10 19 2 73 6 120 10 47 3 105 8 130 10 25 3 90 7 145 10 55 3 120 7
145 9 79 7 333 19 397 20 35 1 63 3 63 6 0 3 100 7 223 8 122 2 223 5 224 5 1
1 142 2 315 2 l313 0 0 -145z"/>
<path d="M2976 3169 c-113 -17 -196 -78 -196 -144 0 -38 65 -100 153 -144 62
-32 69 -33 95 -20 25 13 110 93 140 132 19 25 27 104 12 131 -20 39 -110 59
-204 45z"/>
<path d="M3362 2713 c-40 -61 -104 -128 -143 -148 -27 -14 -69 -19 -122 -14
-27 3 -102 74 -121 114 -9 19 -20 35 -24 35 -4 0 -15 -13 -25 -29 -40 -68
-123 -125 -213 -146 -46 -10 -58 -9 -115 10 -90 30 -154 70 -221 138 -39 39
-64 57 -74 53 -14 -5 -13 -11 6 -44 12 -20 24 -50 27 -67 13 -90 89 -310 149
-429 104 -206 218 -296 381 -298 147 -3 232 109 220 290 -9 135 -27 217 -73
319 -29 66 -29 71 -6 50 9 -8 39 -25 65 -36 68 -29 133 -18 205 37 43 31 42
30 106 112 38 48 47 66 39 78 -17 29 -30 23 -61 -25z"/>
<path d="M5520 2848 c-88 -56 -233 -150 -245 -160 -5 -4 -35 -26 -65 -47 -30
-22 -60 -44 -65 -48 -6 -4 -28 -21 -50 -38 -22 -16 -47 -35 -55 -42 -8 -7 -46
-38 -85 -69 -169 -137 -342 -301 -414 -392 -41 -53 -68 -122 -77 -198 -8 -64
-13 -1627 -6 -1657 3 -10 8 -15 11 -10 3 5 28 25 56 44 183 127 392 322 522
486 15 19 38 47 51 62 33 38 169 244 208 315 103 185 225 483 249 605 2 11 6
25 9 29 5 8 7 19 21 85 51 253 57 308 58 552 2 182 -3 287 -18 385 -19 119
-24 140 -33 140 -4 0 -36 -19 -72 -42z"/>
<path d="M325 2210 c4 -50 8 -101 11 -113 2 -12 6 -43 9 -68 3 -25 8 -56 10
-70 3 -13 8 -40 11 -59 9 -60 72 -291 103 -382 73 -208 170 -400 317 -623 21
-33 44 -64 50 -70 5 -5 23 -28 39 -50 16 -22 31 -42 34 -45 4 -3 24 -27 46
-55 40 -49 194 -207 271 -275 98 -89 299 -233 415 -299 75 -42 71 -43 56 24
-4 17 -9 42 -12 57 -3 16 -7 39 -10 53 -3 14 -7 35 -9 47 -2 13 -11 57 -19 98
-26 127 -27 134 -31 161 -3 14 -17 86 -31 160 -15 74 -29 145 -31 159 -2 14
-9 45 -14 70 -5 25 -12 56 -14 70 -4 22 -17 88 -30 146 -2 12 -7 37 -10 55 -7
42 -13 75 -23 114 -3 17 -8 39 -9 50 -1 11 -11 67 -23 125 -28 136 -30 149
-37 185 -14 81 -55 279 -59 285 -5 7 -22 15 -125 53 -30 11 -64 23 -75 28 -11
4 -72 26 -135 49 -63 23 -137 50 -165 60 -27 10 -81 29 -120 41 -38 12 -79 25
-90 30 -57 22 -212 65 -268 74 l-37 6 5 -91z"/>
</g>
</svg>
