<svg version="1.0" xmlns="http://www.w3.org/2000/svg" width="810.667" height="810.667" viewBox="0 0 608 608"><path d="M419.3 2.7c-1.4 1.6-3.4 4.6-4.5 6.7-1.8 3.6-8.7 20.8-9.3 23.1-.1.5-.4 1.7-.7 2.5-.6 1.5-2.9 9.5-3.4 11.5-.7 2.9-3.4 15.9-3.9 18.7-.7 3.8-2.1 4.9-5.5 4.3-9.9-1.7-91.8-2.5-117.5-1.2-12.9.7-27.8 1.6-35.5 2.2-11.3.8-18.3 1.5-33.5 3.1-13.7 1.4-12.5 2-15.7-7.1-7.9-22-19.7-40.4-30.5-47.3-10.9-7-16.8-3.4-20.2 12.1-.9 3.7-1.5 8-2.7 19.2-.7 6.4-1.6 36.9-2.9 96.4-.2 13.5-.2 13.5-3.1 15.9C113.6 177 95.7 195 90 203.4c-.8 1.3-2.1 2.9-2.8 3.7-.7.8-3.1 3.9-5.3 6.9-2.1 3-4.4 6-4.9 6.7-.6.7-1 1.4-1 1.7 0 .2-1.8 3.1-4 6.4-8.9 13.5-26.5 51.7-28.5 62-.2 1.2-.7 2.7-1 3.2-.3.5-.8 1.8-1 2.8-.1.9-.8 3.5-1.3 5.7-.6 2.2-1.3 5.1-1.6 6.5-.3 1.4-1 4.4-1.6 6.8-.5 2.3-1.2 5.7-1.4 7.5l-.4 3.2 5.6.2c3.1.1 10.2.4 15.7.7 18 1 31.9 1.8 35.5 1.9 3 .2 4 .9 7.4 5.7 4.5 6.3 18.3 23.6 23.6 29.5 5.7 6.5 25.1 25.6 31.4 31 3.2 2.7 6.8 5.8 8 6.8 1.1 1.1 7.3 5.8 13.6 10.5 6.3 4.8 11.7 9 11.8 9.4.2.5.8.8 1.3.8.6 0 4.2 2.2 8.2 4.8 11.7 7.9 47.4 27.2 50.2 27.2.3 0 2.4.9 4.8 1.9 5.5 2.5 20.9 8.4 27.2 10.5 7.3 2.3 9.7 2.5 12.3.8 1.2-.8 2.2-1.2 2.2-.8 0 .9 12.6-6.3 27.4-15.7 4.3-2.7 27.4-19.2 31.3-22.3 2.3-1.9 4.6-3.4 5.1-3.4.6 0 1.2-.3 1.4-.8.2-.4 2.3-2.3 4.8-4.2 2.5-1.9 5-3.9 5.6-4.5.6-.5 3.9-3.5 7.4-6.5 19.2-16.8 39.7-36.6 62.5-60.4 4.2-4.4 17.8-19.4 23.7-26.1 6.7-7.7 15.7-23.1 17.3-29.7.7-2.6 1.8-3.1 13.4-6.7 11.9-3.8 19.3-5.9 23.4-6.7 1-.2 2.7-.6 3.7-.9 2.1-.7 2.8-.8 13.5-3 4.4-.9 9-1.8 10.2-2l2.2-.5-2.6-6.3c-3.8-9.3-12.7-26.9-18-35.5-3-4.9-10.8-16.7-11.3-17.2-.3-.3-1.7-2.1-3-4s-3.2-4.4-4.1-5.5c-1-1.1-4.6-5.4-8.1-9.5-9.8-11.6-24.6-25.9-35.8-34.5-3.6-2.8-7-5.5-7.7-6-.6-.6-2.8-2.1-4.7-3.5-2-1.4-3.6-3.4-3.7-4.5-.1-1.1-.2-3.8-.4-6-.1-2.2-.5-7.2-.9-11-.4-3.9-.9-9-1.1-11.5-.4-4.1-.9-8.3-2-18-.3-1.9-.7-5.8-1.1-8.5-.3-2.8-.7-6.4-.9-8-.2-1.7-.6-5.3-1-8-.3-2.8-.7-6.1-.9-7.5-.3-1.4-.7-4.5-1-7-.4-2.5-.8-5.6-1.1-7-.3-1.4-.7-4.2-1-6.3-1.5-10.8-2.1-14.8-4.1-25.7-1-5.5-1.3-7.2-1.8-10.9-1.2-8-3.8-12.1-7.6-12.1-.6 0-2.2 1.2-3.7 2.7zM451.5 289v14.5l-6.5 5.6c-12.5 10.8-46.8 45.5-62.7 63.6-4.3 4.8-8 9-8.3 9.3-.3.3-3.8 4.3-7.9 9-9.5 10.8-33.1 34.4-43.6 43.5-4.4 3.9-8.2 7.2-8.5 7.6-.3.3-4.3 3.5-9 7.3-10.8 8.5-10.8 8.6-15.2 11.8l-3.6 2.8-1.5-2.4c-2.2-3.3-8.6-9.5-14.7-14.1-2.9-2.2-5.7-4.5-6.4-5-.6-.6-5.6-4.2-11.1-8-12.7-8.7-16.9-11.8-17.3-12.8-.2-.4-.8-.7-1.2-.7-.8 0-26.9-18.8-33-23.7-.8-.7-7-5.5-13.8-10.8-6.8-5.2-13.3-10.5-14.5-11.6-1.2-1.2-4.4-4-7.1-6.2-2.7-2.3-12-11.3-20.7-19.9l-15.8-15.7V314l.1-19 2.6-.1c1.5 0 3.4-.2 4.2-.4 2.5-.5 11.2-1.7 22.5-3.1 2.2-.2 5.6-.7 7.5-.9 1.9-.3 6.2-.7 9.5-1.1 3.3-.3 7.1-.7 8.5-.8 1.4-.2 5.7-.7 9.5-1.1 3.9-.4 7.7-.9 8.6-1 .9-.2 5.6-.6 10.5-1s9.1-.9 9.4-1c.3-.2 4.6-.6 9.5-1 5-.4 10.6-.8 12.5-1 1.9-.2 7.3-.6 12-1 4.7-.3 10.5-.8 13-1 2.5-.3 9-.7 14.5-1 5.5-.3 12-.7 14.5-.9 7.9-.7 33.3-1.9 39.7-2 3.5-.1 6.3-.3 6.3-.6s10-.7 22.3-.8c12.2-.2 22.3-.5 22.4-.5.1-.1 14.2-.2 31.5-.2h31.3V289z"/><path d="M297.6 291.1c-11.3 1.7-19.6 7.8-19.6 14.4 0 3.8 6.5 10 15.3 14.4 6.2 3.2 6.9 3.3 9.5 2 2.5-1.3 11-9.3 14-13.2 1.9-2.5 2.7-10.4 1.2-13.1-2-3.9-11-5.9-20.4-4.5zm38.6 45.6c-4 6.1-10.4 12.8-14.3 14.8-2.7 1.4-6.9 1.9-12.2 1.4-2.7-.3-10.2-7.4-12.1-11.4-.9-1.9-2-3.5-2.4-3.5-.4 0-1.5 1.3-2.5 2.9-4 6.8-12.3 12.5-21.3 14.6-4.6 1-5.8.9-11.5-1-9-3-15.4-7-22.1-13.8-3.9-3.9-6.4-5.7-7.4-5.3-1.4.5-1.3 1.1.6 4.4 1.2 2 2.4 5 2.7 6.7 1.3 9 8.9 31 14.9 42.9 10.4 20.6 21.8 29.6 38.1 29.8 14.7.3 23.2-10.9 22-29-.9-13.5-2.7-21.7-7.3-31.9-2.9-6.6-2.9-7.1-.6-5 .9.8 3.9 2.5 6.5 3.6 6.8 2.9 13.3 1.8 20.5-3.7 4.3-3.1 4.2-3 10.6-11.2 3.8-4.8 4.7-6.6 3.9-7.8-1.7-2.9-3-2.3-6.1 2.5zM552 323.2c-8.8 5.6-23.3 15-24.5 16-.5.4-3.5 2.6-6.5 4.7-3 2.2-6 4.4-6.5 4.8-.6.4-2.8 2.1-5 3.8-2.2 1.6-4.7 3.5-5.5 4.2-.8.7-4.6 3.8-8.5 6.9-16.9 13.7-34.2 30.1-41.4 39.2-4.1 5.3-6.8 12.2-7.7 19.8-.8 6.4-1.3 162.7-.6 165.7.3 1 .8 1.5 1.1 1 .3-.5 2.8-2.5 5.6-4.4 18.3-12.7 39.2-32.2 52.2-48.6 1.5-1.9 3.8-4.7 5.1-6.2 3.3-3.8 16.9-24.4 20.8-31.5 10.3-18.5 22.5-48.3 24.9-60.5.2-1.1.6-2.5.9-2.9.5-.8.7-1.9 2.1-8.5 5.1-25.3 5.7-30.8 5.8-55.2.2-18.2-.3-28.7-1.8-38.5-1.9-11.9-2.4-14-3.3-14-.4 0-3.6 1.9-7.2 4.2zM32.5 387c.4 5 .8 10.1 1.1 11.3.2 1.2.6 4.3.9 6.8.3 2.5.8 5.6 1 7 .3 1.3.8 4 1.1 5.9.9 6 7.2 29.1 10.3 38.2 7.3 20.8 17 40 31.7 62.3 2.1 3.3 4.4 6.4 5 7 .5.5 2.3 2.8 3.9 5s3.1 4.2 3.4 4.5c.4.3 2.4 2.7 4.6 5.5 4 4.9 19.4 20.7 27.1 27.5 9.8 8.9 29.9 23.3 41.5 29.9 7.5 4.2 7.1 4.3 5.6-2.4-.4-1.7-.9-4.2-1.2-5.7-.3-1.6-.7-3.9-1-5.3-.3-1.4-.7-3.5-.9-4.7-.2-1.3-1.1-5.7-1.9-9.8-2.6-12.7-2.7-13.4-3.1-16.1-.3-1.4-1.7-8.6-3.1-16-1.5-7.4-2.9-14.5-3.1-15.9-.2-1.4-.9-4.5-1.4-7-.5-2.5-1.2-5.6-1.4-7-.4-2.2-1.7-8.8-3-14.6-.2-1.2-.7-3.7-1-5.5-.7-4.2-1.3-7.5-2.3-11.4-.3-1.7-.8-3.9-.9-5-.1-1.1-1.1-6.7-2.3-12.5-2.8-13.6-3-14.9-3.7-18.5-1.4-8.1-5.5-27.9-5.9-28.5-.5-.7-2.2-1.5-12.5-5.3-3-1.1-6.4-2.3-7.5-2.8-1.1-.4-7.2-2.6-13.5-4.9-6.3-2.3-13.7-5-16.5-6-2.7-1-8.1-2.9-12-4.1-3.8-1.2-7.9-2.5-9-3-5.7-2.2-21.2-6.5-26.8-7.4l-3.7-.6.5 9.1z"/></svg>